<mxfile host="app.diagrams.net" modified="2023-10-24T00:55:56.797Z" agent="Mozilla/5.0 (Windows NT 10.0; Win64; x64) AppleWebKit/537.36 (KHTML, like Gecko) Chrome/118.0.0.0 Safari/537.36" version="22.0.6" etag="7zcRYtZotijqwc5RT_tl" type="github">
  <diagram name="第 1 页" id="NcyKKWp_0sJrWGTC7Gt_">
    <mxGraphModel>
      <root>
        <mxCell id="0" />
        <mxCell id="1" parent="0" />
      </root>
    </mxGraphModel>
  </diagram>
</mxfile>
